<svg xmlns="http://www.w3.org/2000/svg" viewBox="0 0 132.02 132.23"><defs><style>.cls-1,.cls-2{stroke:#000;stroke-miterlimit:10;}.cls-1{stroke-width:2px;}</style></defs><g id="Layer_2" data-name="Layer 2"><g id="Layer_1-2" data-name="Layer 1"><path class="cls-1" d="M31.71,1H99.64a23.15,23.15,0,0,0,2.57.47c10.78.77,18.63,6.51,24.55,15C129.89,21,131,26.29,131,31.83Q131,65.52,131,99.2c0,7.59-1.78,14.32-6.91,20.27-6.45,7.48-14.3,11.64-24.12,11.69q-34.21.17-68.44,0c-8.17,0-15.22-3.29-21.12-8.75-6.4-5.93-9.29-13.6-9.32-22.22C1,77.57.92,54.93,1.13,32.3,1.28,16.54,11.16,5.43,26.28,2,28.07,1.58,29.9,1.32,31.71,1Zm93.35,65.5c0-11.41,0-22.81,0-34.22a23.8,23.8,0,0,0-.32-4.55c-2.49-12.87-12.35-20.9-26.42-21-21.46-.17-42.93,0-64.4-.08a28.23,28.23,0,0,0-20.76,8.6C8.36,20,6.49,26.22,6.48,32.92q-.06,33.42,0,66.83c0,11.31,5.63,19.22,15.75,23.82a23.63,23.63,0,0,0,9.34,2.13q34.22.27,68.44.06c14.22-.1,25-11.32,25-25.58Q125.07,83.35,125.06,66.5Z"/><path class="cls-2" d="M30.54,66.19A35.14,35.14,0,0,1,66,31.85c19.15.08,35.23,14.45,35.27,34.41s-16.39,34.49-35.47,34.46A35.2,35.2,0,0,1,30.54,66.19Zm5.94-.11C36.28,82.22,48.85,95,65.68,95.3c16.47.33,30.16-13,30.19-28.94S82.38,37,65.84,37.28C49.12,37.55,36.54,49.91,36.48,66.08Z"/><path d="M31.17,29.17c2,0,3.34,1,3.37,3.19s-1.19,3.25-3.34,3.29-3.71-1.21-3.63-3.29S29,29.22,31.17,29.17Z"/></g></g></svg>